<svg width="140" height="160" viewBox="430 420 140 160" xmlns="http://www.w3.org/2000/svg"><polygon points=" 500,430 560.62,465 560.62,535 500,570 439.38,535 439.38,465" transform="rotate(0,0,0)" stroke="#000000" fill="#9BB324" opacity="1" stroke-width="0" stroke-linecap="round"></polygon><path d="M485 455 C505 465, 520 495, 500 505 C475 500, 475 475, 485 455" transform="rotate(0,0,0)" stroke="#000000" fill="#37400D" opacity="1" stroke-width="0" stroke-linecap="round"></path><path d="M500 505 C510 525, 525 542, 535 547 C525 542, 510 525, 500 505" transform="rotate(0,0,0)" stroke="#37400D" fill="#000000" opacity="1" stroke-width="8" stroke-linecap="round"></path><polygon points=" 500,430 560.62,465 560.62,535 500,570 439.38,535 439.38,465" transform="rotate(0,0,0)" stroke="#808080" fill="none" opacity="1" stroke-width="10" stroke-linecap="round"></polygon><path d="M525 460 C510 460, 490 490, 500 505 C530 495, 510 464, 525 460" transform="rotate(0,0,0)" stroke="#000000" fill="#637317" opacity="1" stroke-width="0" stroke-linecap="round"></path><path d="M450 475 C475 475, 510 490, 500 505 C470 520, 468 477, 450 475" transform="rotate(0,0,0)" stroke="#000000" fill="#4D5912" opacity="1" stroke-width="0" stroke-linecap="round"></path></svg>