<svg width="292" height="255" viewBox="89 164 292 255" xmlns="http://www.w3.org/2000/svg"><path d="M100 315 C105 290, 140 265, 190 250 C195 225, 220 175, 235 175 C250 175, 275 225, 280 250 C330 265, 365 290, 370 315 C345 440, 125 440, 100 315" transform="rotate(0,0,0)" stroke="#000000" fill="#B7764B" opacity="1" stroke-width="0" stroke-linecap="round"></path><rect rx="10" ry="10" transform="rotate(0,0,0)" stroke="#000000" fill="#845535" opacity="1" stroke-width="0" x="190" y="280" width="20" height="40" stroke-linecap="round"></rect><rect rx="10" ry="10" transform="rotate(0,0,0)" stroke="#000000" fill="#845535" opacity="1" stroke-width="0" x="260" y="280" width="20" height="40" stroke-linecap="round"></rect><path d="M100 315 C170 375, 300 375, 370 315 C345 440, 125 440, 100 315" transform="rotate(0,0,0)" stroke="#000000" fill="#F4E9E1" opacity="1" stroke-width="0" stroke-linecap="round"></path><rect rx="14" ry="14" transform="rotate(0,0,0)" stroke="#000000" fill="#B7764B" opacity="1" stroke-width="0" x="221" y="363" width="28" height="38" stroke-linecap="round"></rect><rect rx="8" ry="8" transform="rotate(0,0,0)" stroke="#000000" fill="#B7764B" opacity="1" stroke-width="0" x="142" y="350" width="16" height="20" stroke-linecap="round"></rect><rect rx="12" ry="12" transform="rotate(0,0,0)" stroke="#000000" fill="#B7764B" opacity="1" stroke-width="0" x="171" y="360" width="24" height="31" stroke-linecap="round"></rect><rect rx="8" ry="8" transform="rotate(0,0,0)" stroke="#000000" fill="#B7764B" opacity="1" stroke-width="0" x="315" y="350" width="16" height="20" stroke-linecap="round"></rect><rect rx="12" ry="12" transform="rotate(0,0,0)" stroke="#000000" fill="#B7764B" opacity="1" stroke-width="0" x="275" y="360" width="24" height="31" stroke-linecap="round"></rect><path d="M100 315 C105 290, 140 265, 190 250 C195 225, 220 175, 235 175 C250 175, 275 225, 280 250 C330 265, 365 290, 370 315 C345 440, 125 440, 100 315" transform="rotate(0,0,0)" stroke="#845535" fill="none" opacity="1" stroke-width="8" stroke-linecap="round"></path></svg>